<svg width="260" height="139" viewBox="0 0 260 139" fill="none" xmlns="http://www.w3.org/2000/svg">
<rect x="1" y="1.5249" width="258" height="136" rx="5" fill="#EFF2F6"/>
<rect x="170" y="18.5248" width="60" height="50" rx="3.50693" fill="#677272"/>
<path d="M167 31.5249H170V57.5249L167 53.7074V31.5249Z" fill="#3B4848"/>
<path d="M233 57.5248L230 57.5248L230 31.5248L233 35.3424L233 57.5248Z" fill="#3B4848"/>
<rect x="79" y="31.5249" width="61" height="51" rx="4.54549" fill="#677272"/>
<path d="M82.5 33.5249L83.145 33.9077L83.799 34.2749L83.79 35.0249L83.799 35.7749L83.145 36.1421L82.5 36.5249L81.855 36.1421L81.201 35.7749L81.21 35.0249L81.201 34.2749L81.855 33.9077L82.5 33.5249Z" fill="#8D9595"/>
<path d="M82.5 77.55L83.145 77.9329L83.799 78.3L83.79 79.05L83.799 79.8L83.145 80.1672L82.5 80.55L81.855 80.1672L81.201 79.8L81.21 79.05L81.201 78.3L81.855 77.9329L82.5 77.55Z" fill="#8D9595"/>
<path d="M82.5 55.0376L83.145 55.4204L83.799 55.7876L83.79 56.5376L83.799 57.2876L83.145 57.6548L82.5 58.0376L81.855 57.6548L81.201 57.2876L81.21 56.5376L81.201 55.7876L81.855 55.4204L82.5 55.0376Z" fill="#8D9595"/>
<path d="M136.5 33.5249L137.145 33.9077L137.799 34.2749L137.79 35.0249L137.799 35.7749L137.145 36.1421L136.5 36.5249L135.855 36.1421L135.201 35.7749L135.21 35.0249L135.201 34.2749L135.855 33.9077L136.5 33.5249Z" fill="#8D9595"/>
<path d="M136.5 77.55L137.145 77.9329L137.799 78.3L137.79 79.05L137.799 79.8L137.145 80.1672L136.5 80.55L135.855 80.1672L135.201 79.8L135.21 79.05L135.201 78.3L135.855 77.9329L136.5 77.55Z" fill="#8D9595"/>
<path d="M136.5 55.0376L137.145 55.4204L137.799 55.7876L137.79 56.5376L137.799 57.2876L137.145 57.6548L136.5 58.0376L135.855 57.6548L135.201 57.2876L135.21 56.5376L135.201 55.7876L135.855 55.4204L136.5 55.0376Z" fill="#8D9595"/>
<path d="M109.827 33.5249L110.472 33.9077L111.126 34.2749L111.117 35.0249L111.126 35.7749L110.472 36.1421L109.827 36.5249L109.182 36.1421L108.528 35.7749L108.537 35.0249L108.528 34.2749L109.182 33.9077L109.827 33.5249Z" fill="#8D9595"/>
<path d="M109.827 77.55L110.472 77.9329L111.126 78.3L111.117 79.05L111.126 79.8L110.472 80.1672L109.827 80.55L109.182 80.1672L108.528 79.8L108.537 79.05L108.528 78.3L109.182 77.9329L109.827 77.55Z" fill="#8D9595"/>
<mask id="path-14-inside-1_392_14033" fill="white">
<rect x="86.9999" y="39.525" width="21" height="16" rx="0.757583"/>
</mask>
<rect x="86.9999" y="39.525" width="21" height="16" rx="0.757583" fill="#414F4F" stroke="#8D9595" stroke-width="2" mask="url(#path-14-inside-1_392_14033)"/>
<mask id="path-15-inside-2_392_14033" fill="white">
<rect x="86.9999" y="58.525" width="21" height="16" rx="0.757583"/>
</mask>
<rect x="86.9999" y="58.525" width="21" height="16" rx="0.757583" fill="#414F4F" stroke="#8D9595" stroke-width="2" mask="url(#path-15-inside-2_392_14033)"/>
<mask id="path-16-inside-3_392_14033" fill="white">
<rect x="111" y="39.525" width="21" height="16" rx="0.757583"/>
</mask>
<rect x="111" y="39.525" width="21" height="16" rx="0.757583" fill="#414F4F" stroke="#8D9595" stroke-width="2" mask="url(#path-16-inside-3_392_14033)"/>
<mask id="path-17-inside-4_392_14033" fill="white">
<rect x="111" y="58.525" width="21" height="16" rx="0.757583"/>
</mask>
<rect x="111" y="58.525" width="21" height="16" rx="0.757583" fill="#414F4F" stroke="#8D9595" stroke-width="2" mask="url(#path-17-inside-4_392_14033)"/>
<rect x="10" y="56.5248" width="16" height="28" rx="2.27275" fill="#677272"/>
<path d="M12.5 57.8198L13.145 58.2026L13.799 58.5698L13.79 59.3198L13.799 60.0698L13.145 60.4369L12.5 60.8198L11.855 60.4369L11.201 60.0698L11.21 59.3198L11.201 58.5698L11.855 58.2026L12.5 57.8198Z" fill="#8D9595"/>
<path d="M12.5 80.7774L13.145 81.1602L13.799 81.5274L13.79 82.2774L13.799 83.0274L13.145 83.3946L12.5 83.7774L11.855 83.3946L11.201 83.0274L11.21 82.2774L11.201 81.5274L11.855 81.1602L12.5 80.7774Z" fill="#8D9595"/>
<path d="M23.5 57.7774L24.145 58.1602L24.799 58.5274L24.79 59.2774L24.799 60.0274L24.145 60.3946L23.5 60.7774L22.855 60.3946L22.201 60.0274L22.21 59.2774L22.201 58.5274L22.855 58.1602L23.5 57.7774Z" fill="#8D9595"/>
<path d="M23.5 80.7774L24.145 81.1602L24.799 81.5274L24.79 82.2774L24.799 83.0274L24.145 83.3946L23.5 83.7774L22.855 83.3946L22.201 83.0274L22.21 82.2774L22.201 81.5274L22.855 81.1602L23.5 80.7774Z" fill="#8D9595"/>
<path d="M14.0001 66.5248H29.0001V76.5248H14.0001V66.5248Z" fill="#3B4848"/>
<mask id="path-24-inside-5_392_14033" fill="white">
<rect x="13.0001" y="61.5248" width="10" height="18" rx="0.757583"/>
</mask>
<rect x="13.0001" y="61.5248" width="10" height="18" rx="0.757583" fill="#414F4F" stroke="#8D9595" stroke-width="2" mask="url(#path-24-inside-5_392_14033)"/>
<rect x="55" y="56.5249" width="16" height="28" rx="2.27275" fill="#677272"/>
<path d="M57.5 57.8198L58.145 58.2027L58.799 58.5698L58.79 59.3198L58.799 60.0698L58.145 60.437L57.5 60.8198L56.855 60.437L56.201 60.0698L56.21 59.3198L56.201 58.5698L56.855 58.2027L57.5 57.8198Z" fill="#8D9595"/>
<path d="M57.5 80.7775L58.145 81.1603L58.799 81.5275L58.79 82.2775L58.799 83.0275L58.145 83.3946L57.5 83.7775L56.855 83.3946L56.201 83.0275L56.21 82.2775L56.201 81.5275L56.855 81.1603L57.5 80.7775Z" fill="#8D9595"/>
<path d="M68.5 57.7775L69.145 58.1603L69.799 58.5275L69.79 59.2775L69.799 60.0275L69.145 60.3946L68.5 60.7775L67.855 60.3946L67.201 60.0275L67.21 59.2775L67.201 58.5275L67.855 58.1603L68.5 57.7775Z" fill="#8D9595"/>
<path d="M68.5 80.7775L69.145 81.1603L69.799 81.5275L69.79 82.2775L69.799 83.0275L69.145 83.3946L68.5 83.7775L67.855 83.3946L67.201 83.0275L67.21 82.2775L67.201 81.5275L67.855 81.1603L68.5 80.7775Z" fill="#8D9595"/>
<path d="M53 66.5249H79V76.5249H53V66.5249Z" fill="#3B4848"/>
<mask id="path-31-inside-6_392_14033" fill="white">
<rect x="58" y="61.5249" width="10" height="18" rx="0.757583"/>
</mask>
<rect x="58" y="61.5249" width="10" height="18" rx="0.757583" fill="#414F4F" stroke="#8D9595" stroke-width="2" mask="url(#path-31-inside-6_392_14033)"/>
<rect x="150" y="29.5249" width="16" height="28" rx="2.27275" fill="#677272"/>
<path d="M152.5 30.8198L153.145 31.2027L153.799 31.5698L153.79 32.3198L153.799 33.0698L153.145 33.437L152.5 33.8198L151.855 33.437L151.201 33.0698L151.21 32.3198L151.201 31.5698L151.855 31.2027L152.5 30.8198Z" fill="#8D9595"/>
<path d="M152.5 53.7775L153.145 54.1603L153.799 54.5275L153.79 55.2775L153.799 56.0275L153.145 56.3946L152.5 56.7775L151.855 56.3946L151.201 56.0275L151.21 55.2775L151.201 54.5275L151.855 54.1603L152.5 53.7775Z" fill="#8D9595"/>
<path d="M163.5 30.7775L164.145 31.1603L164.799 31.5275L164.79 32.2775L164.799 33.0275L164.145 33.3946L163.5 33.7775L162.855 33.3946L162.201 33.0275L162.21 32.2775L162.201 31.5275L162.855 31.1603L163.5 30.7775Z" fill="#8D9595"/>
<path d="M163.5 53.7775L164.145 54.1603L164.799 54.5275L164.79 55.2775L164.799 56.0275L164.145 56.3946L163.5 56.7775L162.855 56.3946L162.201 56.0275L162.21 55.2775L162.201 54.5275L162.855 54.1603L163.5 53.7775Z" fill="#8D9595"/>
<path d="M140 39.5249H167V49.5249H140V39.5249Z" fill="#3B4848"/>
<mask id="path-38-inside-7_392_14033" fill="white">
<rect x="153" y="34.5249" width="10" height="18" rx="0.757583"/>
</mask>
<rect x="153" y="34.5249" width="10" height="18" rx="0.757583" fill="#414F4F" stroke="#8D9595" stroke-width="2" mask="url(#path-38-inside-7_392_14033)"/>
<rect x="234" y="29.5249" width="16" height="28" rx="2.27275" fill="#677272"/>
<path d="M236.5 30.8198L237.145 31.2027L237.799 31.5698L237.79 32.3198L237.799 33.0698L237.145 33.437L236.5 33.8198L235.855 33.437L235.201 33.0698L235.21 32.3198L235.201 31.5698L235.855 31.2027L236.5 30.8198Z" fill="#8D9595"/>
<path d="M236.5 53.7775L237.145 54.1603L237.799 54.5275L237.79 55.2775L237.799 56.0275L237.145 56.3946L236.5 56.7775L235.855 56.3946L235.201 56.0275L235.21 55.2775L235.201 54.5275L235.855 54.1603L236.5 53.7775Z" fill="#8D9595"/>
<path d="M247.5 30.7775L248.145 31.1603L248.799 31.5275L248.79 32.2775L248.799 33.0275L248.145 33.3946L247.5 33.7775L246.855 33.3946L246.201 33.0275L246.21 32.2775L246.201 31.5275L246.855 31.1603L247.5 30.7775Z" fill="#8D9595"/>
<path d="M247.5 53.7775L248.145 54.1603L248.799 54.5275L248.79 55.2775L248.799 56.0275L248.145 56.3946L247.5 56.7775L246.855 56.3946L246.201 56.0275L246.21 55.2775L246.201 54.5275L246.855 54.1603L247.5 53.7775Z" fill="#8D9595"/>
<path d="M231 39.5249H247V49.5249H231V39.5249Z" fill="#3B4848"/>
<mask id="path-45-inside-8_392_14033" fill="white">
<rect x="237" y="34.5249" width="10" height="18" rx="0.757583"/>
</mask>
<rect x="237" y="34.5249" width="10" height="18" rx="0.757583" fill="#414F4F" stroke="#8D9595" stroke-width="2" mask="url(#path-45-inside-8_392_14033)"/>
<rect x="29.526" y="42.0509" width="22.9479" height="54.9479" fill="#8D9595" stroke="#677272" stroke-width="1.05208"/>
<rect x="29.274" y="43.9619" width="23.0458" height="1.40277" fill="#677272"/>
<rect x="29.274" y="49.573" width="23.0458" height="1.40277" fill="#677272"/>
<rect x="29.274" y="55.1841" width="23.0458" height="1.40277" fill="#677272"/>
<rect x="29.274" y="60.7952" width="23.0458" height="1.40277" fill="#677272"/>
<rect x="29.274" y="66.4064" width="23.0458" height="1.40277" fill="#677272"/>
<rect x="29.274" y="72.0173" width="23.0458" height="1.40277" fill="#677272"/>
<rect x="29.274" y="77.6285" width="23.0458" height="1.40277" fill="#677272"/>
<rect x="29.274" y="83.2396" width="23.0458" height="1.40277" fill="#677272"/>
<rect x="29.274" y="88.8508" width="23.0458" height="1.40277" fill="#677272"/>
<rect x="29.274" y="94.4619" width="23.0458" height="1.40277" fill="#677272"/>
<path d="M11.9398 20.5644L29.0001 41.5248H53.0001L70.4463 20.5644V10.5248H11.9398V20.5644Z" fill="#677272"/>
<path d="M70.0001 118.654L53.0001 97.5248L28.9475 97.5248L12.0001 118.654L12.0001 128.525L70.0001 128.525L70.0001 118.654Z" fill="#677272"/>
<rect x="1" y="1.5249" width="258" height="136" rx="5" stroke="#CED7E7" stroke-width="2"/>
</svg>
